<svg width="1414" height="108" viewBox="0 0 1414 108" fill="none" xmlns="http://www.w3.org/2000/svg">
<path d="M5 75.8471V102.612M33.3388 5V102.612M60.1033 39.6364V102.612M86.8678 75.8471V102.612M115.207 5V102.612M141.971 39.6364V102.612M165.587 75.8471V102.612M193.926 75.8471V102.612M222.264 17.595V102.612M249.029 52.2314V102.612M275.793 75.8471V102.612M300.983 39.6364V102.612M327.748 75.8471V102.612M354.512 17.595V102.612M384.426 5V102.612M408.041 39.6364V102.612M436.38 75.8471V102.612M464.719 52.2314V102.612M488.335 85.2934V102.612M518.248 85.2934V102.612M543.438 52.2314V102.612M571.777 75.8471V102.612M596.967 5V102.612M625.306 39.6364V102.612M650.496 63.2521V102.612M677.26 5V102.612M705.599 85.2934V102.612M730.789 28.6157V102.612M759.128 63.2521V102.612M785.893 85.2934V102.612M814.231 17.595V102.612M840.996 85.2934V102.612M866.186 85.2934V102.612M892.95 63.2521V102.612M919.715 85.2934V102.612M949.628 17.595V102.612M973.244 5V102.612M998.434 52.2314V102.612M1028.35 75.8471V102.612M1053.54 63.2521V102.612M1083.45 75.8471V102.612M1107.07 5V102.612M1133.83 63.2521V102.612M1162.17 85.2934V102.612M1187.36 85.2934V102.612M1217.27 52.2314V102.612M1242.46 75.8471V102.612M1270.8 17.595V102.612M1295.99 63.2521V102.612M1325.9 75.8471V102.612M1353.34 75.8471V102.612M1381.68 5V102.612M1408.44 39.6364V102.612" stroke="url(#paint0_linear_16_201)" stroke-width="9.44628" stroke-linecap="round" stroke-linejoin="round"/>
<defs>
<linearGradient id="paint0_linear_16_201" x1="2013.79" y1="5" x2="2013.79" y2="195.5" gradientUnits="userSpaceOnUse">
<stop stop-color="#F5C2D3" stop-opacity="0"/>
<stop offset="0.520833" stop-color="#F5C2D3"/>
</linearGradient>
</defs>
</svg>
